<svg width="15" height="15" viewBox="0 0 15 15" fill="none" xmlns="http://www.w3.org/2000/svg">
<g clip-path="url(#clip0_1366_1051)">
<path d="M1.40625 1.875C1.03329 1.875 0.675604 2.02316 0.411881 2.28688C0.148158 2.5506 0 2.90829 0 3.28125L0 5.15625H5.625C5.74932 5.15625 5.86855 5.20564 5.95646 5.29354C6.04436 5.38145 6.09375 5.50068 6.09375 5.625C6.09375 5.86219 6.16875 6.22875 6.38063 6.52313C6.57469 6.79313 6.90281 7.03125 7.5 7.03125C8.09719 7.03125 8.42531 6.79313 8.61938 6.52313C8.83125 6.22875 8.90625 5.86219 8.90625 5.625C8.90625 5.50068 8.95564 5.38145 9.04354 5.29354C9.13145 5.20564 9.25068 5.15625 9.375 5.15625H15V3.28125C15 2.90829 14.8518 2.5506 14.5881 2.28688C14.3244 2.02316 13.9667 1.875 13.5938 1.875H1.40625Z" fill="white"/>
<path d="M15 6.09375H9.79594C9.72871 6.44525 9.5871 6.77832 9.38062 7.07062C9.01219 7.5825 8.40281 7.96875 7.5 7.96875C6.59719 7.96875 5.98781 7.5825 5.61937 7.07062C5.41292 6.77831 5.27132 6.44525 5.20406 6.09375H0V11.7188C0 12.0917 0.148158 12.4494 0.411881 12.7131C0.675604 12.9768 1.03329 13.125 1.40625 13.125H13.5938C13.9667 13.125 14.3244 12.9768 14.5881 12.7131C14.8518 12.4494 15 12.0917 15 11.7188V6.09375Z" fill="white"/>
</g>
<defs>
<clipPath id="clip0_1366_1051">
<rect width="15" height="15" fill="white"/>
</clipPath>
</defs>
</svg>
