<svg width="71" height="76" viewBox="0 0 71 76" fill="none" xmlns="http://www.w3.org/2000/svg">
<rect width="71" height="76" rx="12" fill="white"/>
<path d="M41.6982 13.1107L41.6982 13.1107C41.1474 12.5598 40.4004 12.2502 39.6214 12.25L41.6982 13.1107ZM41.6982 13.1107L53.5143 24.9268L53.5143 24.9268M41.6982 13.1107L53.5143 24.9268M53.5143 24.9268C54.0652 25.4776 54.3748 26.2246 54.375 27.0036V56.625C54.375 58.2495 53.7297 59.8074 52.581 60.956C51.4324 62.1047 49.8745 62.75 48.25 62.75H22.75C21.1255 62.75 19.5676 62.1047 18.419 60.956C17.2703 59.8074 16.625 58.2495 16.625 56.625V18.375C16.625 16.7505 17.2703 15.1926 18.419 14.044C19.5676 12.8953 21.1255 12.25 22.75 12.25H23M53.5143 24.9268L23 12.25M23 12.25H39.6214H23ZM40.458 16.6045L40.0312 16.1777V16.7812V23.1562C40.0312 24.0679 40.3934 24.9423 41.0381 25.5869C41.6827 26.2316 42.5571 26.5938 43.4688 26.5938H49.8438H50.4473L50.0205 26.167L40.458 16.6045Z" fill="#1F3746" stroke="#A150F9" stroke-width="0.5"/>
<path d="M27.661 35.1V37.802C27.661 38.593 27.437 38.985 26.779 38.985C26.079 38.985 25.799 38.663 25.799 37.949V37.487H24.21V38.033C24.21 39.657 25.295 40.105 26.779 40.105C28.172 40.105 29.32 39.783 29.32 37.802V35.1H27.661ZM33.496 35.1H30.017V40H31.676V38.474H33.3C34.651 38.474 35.526 37.991 35.526 36.759C35.526 35.758 34.847 35.1 33.496 35.1ZM33.104 37.354H31.676V36.234H33.104C33.594 36.234 33.839 36.374 33.839 36.759C33.839 37.137 33.622 37.354 33.104 37.354ZM40.9873 38.873H37.7463V38.054H40.7213V36.92H37.7463V36.234H40.9173V35.1H36.0873V40H40.9873V38.873ZM47.5499 37.088H44.3859V38.285H45.8559C45.7159 38.649 45.3589 38.985 44.5959 38.985C43.6439 38.985 43.0209 38.488 43.0209 37.55C43.0209 36.619 43.5039 36.122 44.4559 36.122C45.1629 36.122 45.5199 36.346 45.7369 36.738H47.4449C47.1299 35.506 45.8839 35.002 44.4629 35.002C42.8879 35.002 41.3409 35.681 41.3409 37.55C41.3409 39.426 42.8669 40.105 44.5889 40.105C46.4859 40.105 47.7389 39.237 47.5499 37.088Z" fill="#A150F9"/>
</svg>
