<svg width="66" height="96" viewBox="0 0 66 96" fill="none" xmlns="http://www.w3.org/2000/svg">
<path d="M43.4396 74.9455L66 70.0601C66 70.0601 57.8621 15.0126 57.7951 14.648C57.728 14.2877 57.4345 14.0447 57.1326 14.0447C56.8308 14.0447 51.0995 13.6215 51.0995 13.6215C51.0995 13.6215 47.1207 9.64525 46.6385 9.22207C46.5253 9.10056 46.3996 9.0419 46.278 8.97905L43.4396 74.9455ZM45.3095 8.86173C45.2424 8.86173 45.1292 8.92039 45.0705 8.92039C45.0034 8.92039 44.1607 9.1676 42.8358 9.5824C41.5026 5.73184 39.1506 2.17458 34.9915 2.17458H34.6309C33.4193 0.662011 31.977 0 30.7066 0C20.9966 0 16.3428 12.1173 14.9005 18.264C11.1607 19.4162 8.45229 20.2584 8.13785 20.3799C6.02477 21.0419 5.97027 21.1006 5.73129 23.095C5.49231 24.5363 0 67.0433 0 67.0433L42.4166 75L45.3095 8.86173V8.86173ZM34.262 11.8115V12.2388C31.9183 12.9637 29.3231 13.7472 26.7866 14.5307C28.2372 8.98743 30.9456 6.26816 33.2977 5.24162C33.9098 6.81285 34.262 8.92039 34.262 11.8115V11.8115ZM30.4048 2.59358C30.824 2.59358 31.2475 2.71089 31.6751 3.02095C28.6061 4.46229 25.2227 8.14106 23.8308 15.4986C21.8665 16.1265 19.8944 16.7299 17.915 17.3087C19.5459 11.6983 23.4702 2.59358 30.4048 2.59358V2.59358ZM32.0902 35.3254C32.0902 35.3254 29.5579 34.0056 26.5476 34.0056C22.0196 34.0056 21.8393 36.838 21.8393 37.5628C21.8393 41.4218 31.977 42.926 31.977 52.0307C31.977 59.2039 27.449 63.7877 21.2984 63.7877C13.9362 63.7877 10.1964 59.2039 10.1964 59.2039L12.1879 52.6927C12.1879 52.6927 16.0535 56.0112 19.3028 56.0112C19.693 56.0269 20.0824 55.9639 20.4478 55.8259C20.8131 55.6878 21.1468 55.4776 21.429 55.2077C21.7112 54.9378 21.936 54.6138 22.0901 54.2552C22.2441 53.8965 22.3243 53.5104 22.3256 53.1201C22.3256 48.0545 13.9991 47.8073 13.9991 39.4944C13.9991 32.5014 19.0093 25.6885 29.2057 25.6885C33.13 25.6885 35.0544 26.8282 35.0544 26.8282L32.0902 35.3254V35.3254ZM35.9558 4.81843C38.1276 5.06983 39.5195 7.53352 40.4167 10.3115C39.335 10.676 38.1234 11.0363 36.7985 11.4553V10.6718C36.7985 8.32123 36.4966 6.38966 35.9558 4.81843V4.81843Z" fill="#4DE84A"/>
<path d="M11.9492 87.756C10.5092 87.612 9.46517 87.564 9.46517 86.988C9.46517 86.508 10.0652 86.34 11.2172 86.34C12.3092 86.34 12.9812 86.592 12.9812 87.168H15.8732C15.8732 85.716 14.8172 84.432 11.2532 84.432C7.98917 84.432 6.63317 85.416 6.63317 87.12C6.63317 88.8 7.54517 89.34 10.1252 89.736C12.5372 90.108 13.3532 90.072 13.3532 90.636C13.3532 91.104 12.6812 91.272 11.5532 91.272C10.3772 91.272 9.41717 91.056 9.41717 90.276H6.44117C6.44117 92.04 7.84517 93.18 11.3972 93.18C14.6972 93.18 16.4132 92.352 16.4132 90.336C16.4132 88.212 14.5772 88.032 11.9492 87.756ZM21.9943 86.436C20.7703 86.436 20.0023 87.084 19.7503 87.42V84.6H17.1343V93H19.7503V89.484C19.7503 88.764 20.0863 88.224 20.9743 88.224C21.8743 88.224 22.1623 88.776 22.1623 89.484V93H24.7783V88.884C24.7783 87.252 23.7583 86.436 21.9943 86.436ZM29.6839 86.436C27.7039 86.436 25.4959 87.336 25.4959 89.808C25.4959 92.28 27.7039 93.18 29.6839 93.18C31.6519 93.18 33.8599 92.28 33.8599 89.808C33.8599 87.336 31.6519 86.436 29.6839 86.436ZM29.6839 91.476C28.4599 91.476 28.0039 90.672 28.0039 89.808C28.0039 88.944 28.4599 88.14 29.6839 88.14C30.8959 88.14 31.3519 88.944 31.3519 89.808C31.3519 90.672 30.8959 91.476 29.6839 91.476ZM39.3715 86.436C38.5075 86.436 37.7395 86.76 37.1995 87.372V86.604H34.5835V95.004H37.1995V92.232C37.7395 92.856 38.5075 93.18 39.3715 93.18C41.3515 93.18 42.8755 91.98 42.8755 89.808C42.8755 87.636 41.3515 86.436 39.3715 86.436ZM38.6995 91.476C37.4635 91.476 36.9715 90.744 36.9715 89.808C36.9715 88.872 37.4635 88.14 38.6995 88.14C39.8515 88.14 40.3675 88.944 40.3675 89.808C40.3675 90.672 39.8515 91.476 38.6995 91.476ZM44.9032 86.124C45.6952 86.124 46.2592 85.68 46.2592 84.888C46.2592 84.096 45.6952 83.64 44.9032 83.64C44.1112 83.64 43.5472 84.096 43.5472 84.888C43.5472 85.68 44.1112 86.124 44.9032 86.124ZM43.5952 93H46.2112V86.604H43.5952V93ZM52.1403 85.86V84.228C51.6723 84.192 51.0843 84.144 50.5923 84.144C48.2643 84.144 47.7483 85.176 47.7483 86.604H46.6923V88.08H47.7483V93H50.3643V88.08H52.0203V86.604H50.3643C50.3643 85.728 51.0483 85.74 52.1403 85.86ZM57.9919 86.604L56.5159 90.396L54.9559 86.604H52.2559L55.3159 92.916L54.1879 95.004H56.8399L60.6799 86.604H57.9919Z" fill="white"/>
</svg>
